<?xml version="1.0" encoding="iso-8859-1"?>
<!-- Generator: Adobe Illustrator 19.0.0, SVG Export Plug-In . SVG Version: 6.00 Build 0)  -->
<svg version="1.1" id="Layer_1" xmlns="http://www.w3.org/2000/svg" xmlns:xlink="http://www.w3.org/1999/xlink" x="0px" y="0px"
	 viewBox="0 0 512 512" style="enable-background:new 0 0 512 512;" xml:space="preserve">
<g>
	<g>
		<path d="M356.092,177.095v-20.926c21.552-15.719,35.594-41.147,35.594-69.805C391.686,38.743,352.941,0,305.319,0
			c-28.573,0-53.937,13.957-69.667,35.4C219.921,13.957,194.558,0,165.985,0C118.364,0,79.62,38.743,79.62,86.365
			c0,28.658,14.041,54.086,35.594,69.805v180.153h46.861l55.072,74.528l-60.079,81.302L183.928,512l53.982-73.052L291.891,512
			l26.859-19.848l-60.079-81.302l55.072-74.528h42.342l0.002-33.04l76.292,38.446v-203.08L356.092,177.095z M235.65,137.329
			c1.712,2.333,3.531,4.58,5.463,6.727h-10.924C232.12,141.909,233.939,139.663,235.65,137.329z M113.017,86.365
			c0-29.206,23.762-52.967,52.968-52.967c29.206,0,52.967,23.761,52.967,52.967c0,29.207-23.761,52.97-52.967,52.97
			C136.779,139.334,113.017,115.572,113.017,86.365z M237.91,382.751l-34.309-46.429h68.618L237.91,382.751z M322.691,302.924
			h-174.08v-125.47h174.082C322.693,207.978,322.692,272.42,322.691,302.924z M305.319,139.334
			c-29.207,0-52.968-23.762-52.968-52.97c-0.001-29.206,23.761-52.967,52.968-52.967s52.969,23.761,52.969,52.967
			C358.288,115.572,334.526,139.334,305.319,139.334z M398.982,287.5L398.982,287.5l-42.891-21.615v-51.392l42.891-21.616V287.5z"/>
	</g>
</g>
<g>
</g>
<g>
</g>
<g>
</g>
<g>
</g>
<g>
</g>
<g>
</g>
<g>
</g>
<g>
</g>
<g>
</g>
<g>
</g>
<g>
</g>
<g>
</g>
<g>
</g>
<g>
</g>
<g>
</g>
</svg>
